# AST/ASF file generated using VICON BodyLanguage
# -----------------------------------------------
:version 1.10
:name VICON
:units
  mass 1.0
  length 0.45
  angle deg
:documentation
   .ast/.asf automatically generated from VICON data using
   VICON BodyBuilder and BodyLanguage model FoxedUp or BRILLIANT.MOD
:root
   order TX TY TZ RX RY RZ
   axis XYZ
   position 0 0 0  
   orientation 0 0 0 
:bonedata
  begin
     id 1 
     name lhipjoint
     direction 0.541323 -0.757556 0.364798 
     length 2.47576 
     axis 0 0 0  XYZ
  end
  begin
     id 2 
     name lfemur
     direction 0.34202 -0.939693 0  
     length 7.46493  
     axis 0 0 20  XYZ
    dof rx ry rz
    limits (-160.0 20.0)
           (-70.0 70.0)
           (-60.0 70.0)
  end
  begin
     id 3 
     name ltibia
     direction 0.34202 -0.939693 0   
     length 7.73805   
     axis 0 0 20   XYZ
    dof rx
    limits (-10.0 170.0)
  end
  begin
     id 4 
     name lfoot
     direction 0.107174 -0.294458 0.949636   
     length 2.25864   
     axis -90 7.62852e-016 20   XYZ
    dof rx rz
    limits (-45.0 90.0)
           (-70.0 20.0)
  end
  begin
     id 5 
     name ltoes
     direction 1.53606e-011 -4.21934e-011 1   
     length 1.12451   
     axis -90 7.62852e-016 20   XYZ
    dof rx
    limits (-90.0 20.0)
  end
  begin
     id 6 
     name rhipjoint
     direction -0.524745 -0.766967 0.36933   
     length 2.44538  
     axis 0 0 0  XYZ 
  end
  begin
     id 7 
     name rfemur
     direction -0.34202 -0.939693 0   
     length 7.61604   
     axis 0 0 -20   XYZ
    dof rx ry rz
    limits (-160.0 20.0)
           (-70.0 70.0)
           (-70.0 60.0)
  end
  begin
     id 8 
     name rtibia
     direction -0.34202 -0.939693 0   
     length 7.61056   
     axis 0 0 -20   XYZ
    dof rx
    limits (-10.0 170.0)
 end
 begin
     id 9 
     name rfoot
     direction -0.12616 -0.346623 0.929482   
     length 2.46372  
     axis -90 -7.62852e-016 -20   XYZ
    dof rx rz
    limits (-45.0 90.0)
           (-20.0 70.0)
  end
  begin
     id 10 
     name rtoes
     direction -1.53531e-011 -4.22004e-011 1   
     length 1.21611   
     axis -90 -7.62852e-016 -20   XYZ
    dof rx
    limits (-90.0 20.0)
  end
  begin
     id 11 
     name lowerback
     direction -0.000778023 0.997293 -0.0735223   
     length 2.06139   
     axis 0 0 0   XYZ
    dof rx ry rz
    limits (-20.0 45.0)
           (-30.0 30.0)
           (-30.0 30.0)
  end
  begin
     id 12 
     name upperback
     direction 0.0222598 0.999722 -0.0078355   
     length 2.06383   
     axis 0 0 0   XYZ
    dof rx ry rz
    limits (-20.0 45.0)
           (-30.0 30.0)
           (-30.0 30.0)
  end
  begin
     id 13 
     name thorax
     direction 0.0219654 0.999405 0.0265994   
     length 2.07163   
     axis 0 0 0   XYZ
    dof rx ry rz
    limits (-20.0 45.0)
           (-30.0 30.0)
           (-30.0 30.0)
  end
  begin
     id 14 
     name lowerneck
     direction 0.0213282 0.988147 0.15202   
     length 1.75969   
     axis 0 0 0   XYZ
    dof rx ry rz
    limits (-20.0 45.0)
           (-30.0 30.0)
           (-30.0 30.0)
  end
  begin
     id 15 
     name upperneck
     direction -0.0546456 0.982624 -0.177379   
     length 1.79244   
     axis 0 0 0   XYZ
    dof rx ry rz
    limits (-20.0 45.0)
           (-30.0 30.0)
           (-30.0 30.0)
  end
  begin
     id 16
     name head
     direction -0.0199987 0.996855 -0.076686  
     length 1.80555  
     axis 0 0 0   XYZ
    dof rx ry rz
    limits (-20.0 45.0)
           (-30.0 30.0)
           (-30.0 30.0)
  end
  begin
     id 17 
     name lclavicle
     direction 0.929565 0.363219 -0.063096  
     length 3.55722  
     axis 0 0 0   XYZ
    dof ry rz
    limits (-20.0 10.0)
           (0.0 20.0)
  end
  begin
     id 18 
     name lhumerus
     direction 1 -4.48993e-011 -2.36203e-027   
     length 4.92785   
     axis 180 -30 -90   XYZ
    dof rx ry rz
    limits (-60.0 90.0)
           (-90.0 90.0)
           (-90.0 90.0)
  end
  begin
     id 19
     name lradius
     direction 1 -4.48947e-011 2.02997e-027   
     length 3.44052   
     axis 180 -30 -90   XYZ
    dof rx
    limits (-10.0 170.0)
  end
  begin
     id 20
     name lwrist
     direction 1 -4.48962e-011 1.45991e-027   
     length 1.72026   
     axis 1.49639e-024 90 90   XYZ
    dof ry
    limits (-180.0 0.0)
 end
  begin
     id 21 
     name lhand
     direction 1 -4.48984e-011 2.91906e-027   
     length 0.654326   
     axis -1.863e-015 90 90   XYZ
    dof rx rz
    limits (-90.0 90.0)
           (-45.0 45.0)
  end
  begin
     id 22 
     name lfingers
     direction 1 -4.48961e-011 5.83968e-027   
     length 0.527534   
     axis -3.72598e-015 90 90   XYZ
    dof rx
    limits (0.0 90.0)
  end
  begin
     id 23
     name lthumb
     direction 0.707107 -6.34963e-011 0.707107   
     length 0.757437   
     axis -90 45 -6.68868e-015   XYZ
    dof rx rz
    limits (-45.0 45.0)
           (-45.0 45.0)
  end
  begin
     id 24 
     name rclavicle
     direction -0.902944 0.422599 -0.0781198   
     length 3.54432  
     axis 0 0 0   XYZ 
    dof ry rz
    limits (-10.0 20.0)
           (-20.0 0.0)
  end
  begin
     id 25 
     name rhumerus
     direction -1 -4.48953e-011 -4.75835e-028  
     length 5.09181   
     axis 180 30 90   XYZ
    dof rx ry rz
    limits (-90.0 60.0)
           (-90.0 90.0)
           (-90.0 90.0)
  end
  begin
     id 26 
     name rradius
     direction -1 -4.48986e-011 -3.25889e-027   
     length 3.49865   
     axis 180 30 90   XYZ
    dof rx
    limits (-10.0 170.0)
  end
  begin
     id 27 
     name rwrist
     direction -1 -4.48963e-011 1.45989e-027   
     length 1.74933   
     axis 1.49639e-024 -90 -90   XYZ
    dof ry
    limits (-180.0 0.0)
  end
  begin
     id 28
     name rhand
     direction -1 -4.49003e-011 2.91844e-027   
     length 0.66641   
     axis -1.863e-015 -90 -90   XYZ
    dof rx rz
    limits (-90.0 90.0)
           (-45.0 45.0)
  end
  begin
     id 29
     name rfingers
     direction -1 -4.48973e-011 5.83886e-027   
     length 0.537277   
     axis -3.72598e-015 -90 -90   XYZ
    dof rx
    limits (0.0 90.0)
  end
  begin
     id 30
     name rthumb
     direction -0.707107 -6.34976e-011 0.707107   
     length 0.771425   
     axis -90 -45 6.68868e-015   XYZ
    dof rx rz
    limits (-45.0 45.0)
           (-45.0 45.0)
  end
:hierarchy
  begin
    root lhipjoint rhipjoint lowerback
    lhipjoint lfemur
    lfemur ltibia
    ltibia lfoot
    lfoot ltoes
    rhipjoint rfemur
    rfemur rtibia
    rtibia rfoot
    rfoot rtoes
    lowerback upperback
    upperback thorax
    thorax lowerneck lclavicle rclavicle
    lowerneck upperneck
    upperneck head
    lclavicle lhumerus
    lhumerus lradius
    lradius lwrist
    lwrist lhand lthumb
    lhand lfingers
    rclavicle rhumerus
    rhumerus rradius
    rradius rwrist
    rwrist rhand rthumb
    rhand rfingers
  end

#!OML:ASF H:\LiuWeirdWalks\Patient Classification 1\Patient 1\Session 1\male.ASF
:FULLY-SPECIFIED
:DEGREES
1
root 0.19564 17.7018 -32.2026 1.85719 3.13801 -2.13728
lowerback 1.40821 1.4326 -4.00421
upperback -3.81731 1.9164 3.4836
thorax -5.01457 1.19204 5.77972
lowerneck -16.0428 -1.05698 5.7783
upperneck 20.5466 -1.01993 -8.45879
head 8.99411 -0.953841 -4.0042
rclavicle 1.71949e-014 1.47101e-014
rhumerus -34.4785 -10.4243 -71.2851
rradius 23.1686
rwrist -2.85527
rhand -16.5864 -5.89876
rfingers 7.12502
rthumb 9.63439 -35.6584
lclavicle 1.71949e-014 1.47101e-014
lhumerus -33.3562 5.68543 84.9787
lradius 22.8073
lwrist 3.79679
lhand -12.4852 2.88446
lfingers 7.12502
lthumb 13.5894 32.4209
rfemur -10.1374 -3.06652 20.2738
rtibia 33.9378
rfoot -18.3757 -20.0818
rtoes -2.46331
lfemur -12.2241 -1.84545 -17.0224
ltibia 33.5282
lfoot -15.2066 16.1063
ltoes -6.91158
2
root 0.192866 17.7019 -32.2044 1.85335 3.21578 -2.19092
lowerback 1.46023 2.96031 -5.7253
upperback -3.72556 3.9143 3.72283
thorax -5.37127 2.27648 6.87637
lowerneck -17.355 -2.74326 6.55511
upperneck 21.3508 -3.45128 -9.18939
head 9.27423 -2.13079 -4.73737
rclavicle -9.44227e-015 -3.61788e-014
rhumerus -35.7437 -13.7186 -68.7365
rradius 23.7484
rwrist -3.34999
rhand -16.4701 -5.82628
rfingers 7.12502
rthumb 9.74662 -35.5807
lclavicle -9.44227e-015 -3.61788e-014
lhumerus -32.102 2.02649 87.4573
lradius 22.3723
lwrist 4.35811
lhand -12.8562 2.13572
lfingers 7.12502
lthumb 13.2319 31.6958
rfemur -10.1353 -3.082 20.3493
rtibia 33.9241
rfoot -18.3573 -20.1387
rtoes -2.48482
lfemur -12.2626 -1.8924 -16.9507
ltibia 33.5618
lfoot -15.2313 16.0809
ltoes -6.96185
3
root 0.191267 17.702 -32.2052 1.85503 3.29835 -2.11651
lowerback 1.51723 4.3901 -7.58565
upperback -3.64108 5.77982 3.95815
thorax -5.87088 3.31364 8.02224
lowerneck -18.6764 -4.27832 7.34432
upperneck 21.9175 -5.69987 -9.98199
head 9.44556 -3.22361 -5.47861
rclavicle -8.83598e-014 -2.66371e-014
rhumerus -36.9854 -16.522 -66.3931
rradius 24.4041
rwrist -4.17182
rhand -16.7124 -6.01264
rfingers 7.12502
rthumb 9.5128 -35.7779
lclavicle -8.83598e-014 -2.66371e-014
lhumerus -31.0714 -1.30204 89.7284
lradius 21.991
lwrist 4.44725
lhand -13.0935 1.87386
lfingers 7.12502
lthumb 13.0031 31.4486
rfemur -10.1292 -3.1789 20.2628
rtibia 33.9207
rfoot -18.3674 -20.1263
rtoes -2.50646
lfemur -12.2695 -1.95009 -17.0402
ltibia 33.5771
lfoot -15.2281 16.0893
ltoes -7.024
4
root 0.186786 17.6999 -32.2039 1.76479 3.28208 -2.17982
lowerback 1.95306 1.98707 -4.46033
upperback -3.81469 2.62333 3.40251
thorax -5.43904 1.57284 5.89149
lowerneck -17.7023 -1.21275 7.23288
upperneck 21.4281 -1.44644 -9.47054
head 9.5441 -1.17512 -4.73118
rclavicle -3.38928e-014 0
rhumerus -34.6165 -11.6191 -70.8535
rradius 23.5798
rwrist -3.17744
rhand -16.7902 -5.73827
rfingers 7.12502
rthumb 9.43775 -35.507
lclavicle -3.38928e-014 0
lhumerus -32.6365 4.32332 85.4466
lradius 22.817
lwrist 5.0646
lhand -13.3864 1.81864
lfingers 7.12502
lthumb 12.7207 31.4112
rfemur -10.0255 -3.15081 20.3467
rtibia 33.9092
rfoot -18.3798 -20.1339
rtoes -2.45205
lfemur -12.1797 -1.91451 -16.9507
ltibia 33.5914
lfoot -15.2275 16.0441
ltoes -6.86879
5
root 0.183958 17.6998 -32.2041 1.74285 3.33617 -2.18615
lowerback 2.10081 1.71218 -4.10601
upperback -3.84957 2.26109 3.30651
thorax -5.48729 1.37651 5.6106
lowerneck -17.7711 -0.805855 7.42274
upperneck 21.436 -0.923201 -9.51255
head 9.61027 -0.921414 -4.71683
rclavicle 5.81445e-015 -4.37326e-015
rhumerus -34.3051 -11.076 -71.4307
rradius 23.5255
rwrist -3.0772
rhand -16.8961 -5.59477
rfingers 7.12502
rthumb 9.33558 -35.3681
lclavicle 5.81445e-015 -4.37326e-015
lhumerus -32.7815 4.89943 84.8685
lradius 22.9732
lwrist 5.45063
lhand -13.6205 1.60994
lfingers 7.12502
lthumb 12.495 31.2164
rfemur -9.9972 -3.19391 20.3605
rtibia 33.9037
rfoot -18.3859 -20.139
rtoes -2.4379
lfemur -12.1626 -1.99848 -16.9402
ltibia 33.5898
lfoot -15.1942 16.0628
ltoes -6.75154
6
root 0.181466 17.7002 -32.2043 1.73328 3.39855 -2.18035
lowerback 2.16754 1.5358 -3.90483
upperback -3.87398 2.02874 3.24228
thorax -5.50853 1.25144 5.44368
lowerneck -17.6918 -0.608169 7.44606
upperneck 21.3611 -0.670374 -9.43262
head 9.59529 -0.79141 -4.65611
rclavicle 1.31695e-014 2.70347e-014
rhumerus -34.1001 -10.7656 -71.7898
rradius 23.4947
rwrist -3.00263
rhand -17.0155 -5.45644
rfingers 7.12502
rthumb 9.22043 -35.2348
lclavicle 1.31695e-014 2.70347e-014
lhumerus -32.8687 5.21889 84.4974
lradius 23.1034
lwrist 5.77388
lhand -13.8171 1.49199
lfingers 7.12502
lthumb 12.3055 31.1099
rfemur -9.97769 -3.255 20.3579
rtibia 33.8903
rfoot -18.3833 -20.1334
rtoes -2.43195
lfemur -12.1583 -2.10649 -16.946
ltibia 33.5863
lfoot -15.15 16.0948
ltoes -6.6122
7
root 0.17915 17.7006 -32.2049 1.73253 3.46412 -2.16856
lowerback 2.14745 1.57982 -3.99299
upperback -3.87543 2.08392 3.23417
thorax -5.50927 1.28257 5.4816
lowerneck -17.5477 -0.760907 7.32568
upperneck 21.2612 -0.885947 -9.26981
head 9.51395 -0.88117 -4.59656
rclavicle -5.31749e-015 -1.66979e-014
rhumerus -34.0928 -10.9417 -71.7313
rradius 23.5388
rwrist -3.01097
rhand -17.1126 -5.34749
rfingers 7.12502
rthumb 9.12671 -35.13
lclavicle -5.31749e-015 -1.66979e-014
lhumerus -32.7934 5.0115 84.5372
lradius 23.1673
lwrist 6.02764
lhand -13.9801 1.44233
lfingers 7.12502
lthumb 12.1483 31.0696
rfemur -9.9703 -3.32332 20.3476
rtibia 33.8817
rfoot -18.3806 -20.1235
rtoes -2.43343
lfemur -12.1621 -2.21777 -16.958
ltibia 33.5743
lfoot -15.1047 16.1247
ltoes -6.47381
8
root 0.177016 17.701 -32.2056 1.73479 3.52875 -2.1526
lowerback 2.06774 1.90891 -4.43215
upperback -3.84508 2.51044 3.28528
thorax -5.51304 1.51484 5.75592
lowerneck -17.4641 -1.29592 7.17809
upperneck 21.182 -1.62987 -9.11893
head 9.40088 -1.22254 -4.60226
rclavicle -1.54555e-014 -1.78906e-014
rhumerus -34.3178 -11.7346 -71.1743
rradius 23.6878
rwrist -3.14579
rhand -17.1971 -5.2841
rfingers 7.12502
rthumb 9.04512 -35.0702
lclavicle -1.54555e-014 -1.78906e-014
lhumerus -32.4909 4.13382 85.077
lradius 23.1434
lwrist 6.20396
lhand -14.1093 1.48502
lfingers 7.12502
lthumb 12.0237 31.1196
rfemur -9.9678 -3.39247 20.3317
rtibia 33.8772
rfoot -18.3753 -20.1131
rtoes -2.45162
lfemur -12.1702 -2.31099 -16.9735
ltibia 33.5633
lfoot -15.0677 16.1411
ltoes -6.37174
9
root 0.174981 17.7011 -32.2062 1.73087 3.58453 -2.13647
lowerback 1.92523 2.60507 -5.32515
upperback -3.77885 3.41795 3.41763
thorax -5.55919 2.00938 6.33989
lowerneck -17.3535 -2.41191 6.78356
upperneck 21.0867 -3.15459 -8.80326
head 9.21472 -1.9314 -4.59453
rclavicle -2.60905e-014 2.5842e-014
rhumerus -34.8738 -13.2876 -69.9647
rradius 23.9752
rwrist -3.44201
rhand -17.2643 -5.28934
rfingers 7.12502
rthumb 8.98033 -35.0782
lclavicle -2.60905e-014 2.5842e-014
lhumerus -31.9339 2.39255 86.2522
lradius 23.0068
lwrist 6.28418
lhand -14.2212 1.56759
lfingers 7.12502
lthumb 11.9158 31.2085
rfemur -9.95905 -3.45198 20.3154
rtibia 33.875
rfoot -18.3736 -20.1041
rtoes -2.46798
lfemur -12.1718 -2.37655 -16.9872
ltibia 33.5559
lfoot -15.0466 16.1408
ltoes -6.30258
10
root 0.172504 17.7005 -32.2062 1.70572 3.61565 -2.13062
lowerback 1.90366 2.91667 -5.72492
upperback -3.7453 3.82278 3.46084
thorax -5.60941 2.23058 6.58177
lowerneck -17.2884 -2.93395 6.60868
upperneck 21.0028 -3.8805 -8.61089
head 9.11605 -2.26401 -4.57382
rclavicle 4.44284e-014 0
rhumerus -35.0807 -14.0154 -69.4702
rradius 24.1355
rwrist -3.62947
rhand -17.3203 -5.32923
rfingers 7.12502
rthumb 8.92624 -35.1204
lclavicle 4.44284e-014 0
lhumerus -31.6816 1.52678 86.7442
lradius 23.0119
lwrist 6.40809
lhand -14.2813 1.64361
lfingers 7.12502
lthumb 11.8579 31.2879
rfemur -9.92731 -3.48238 20.3128
rtibia 33.8737
rfoot -18.3747 -20.1031
rtoes -2.49096
lfemur -12.1492 -2.37977 -16.9839
ltibia 33.5538
lfoot -15.046 16.11
ltoes -6.29909
11
root 0.169971 17.6998 -32.2057 1.66984 3.63843 -2.13284
lowerback 1.86533 3.27751 -6.18472
upperback -3.6986 4.29354 3.52144
thorax -5.66073 2.48766 6.87068
lowerneck -17.2084 -3.52683 6.42293
upperneck 20.9124 -4.70269 -8.4091
head 9.00788 -2.64211 -4.5563
rclavicle 2.77802e-014 -3.57812e-015
rhumerus -35.3244 -14.8524 -68.8788
rradius 24.2957
rwrist -3.80385
rhand -17.3576 -5.35289
rfingers 7.12502
rthumb 8.89028 -35.1456
lclavicle 2.77802e-014 -3.57812e-015
lhumerus -31.4051 0.532323 87.3277
lradius 23.0048
lwrist 6.48125
lhand -14.3165 1.71171
lfingers 7.12502
lthumb 11.8239 31.3579
rfemur -9.88329 -3.4949 20.3207
rtibia 33.8733
rfoot -18.3813 -20.1101
rtoes -2.5052
lfemur -12.1149 -2.38051 -16.9715
ltibia 33.5568
lfoot -15.0451 16.0843
ltoes -6.30497
12
root 0.167411 17.6991 -32.2048 1.62428 3.6517 -2.13877
lowerback 1.8865 3.35078 -6.27502
upperback -3.68496 4.38707 3.51885
thorax -5.68238 2.53843 6.91014
lowerneck -17.1503 -3.66527 6.40977
upperneck 20.8788 -4.90938 -8.32653
head 8.97069 -2.73071 -4.54422
rclavicle -6.95249e-014 1.19271e-015
rhumerus -35.314 -15.0784 -68.8124
rradius 24.3478
rwrist -3.86772
rhand -17.3975 -5.35434
rfingers 7.12502
rthumb 8.85176 -35.1487
lclavicle -6.95249e-014 1.19271e-015
lhumerus -31.364 0.192563 87.4249
lradius 23.1039
lwrist 6.57159
lhand -14.3283 1.7539
lfingers 7.12502
lthumb 11.8125 31.4008
rfemur -9.82717 -3.49528 20.3336
rtibia 33.8718
rfoot -18.3869 -20.1225
rtoes -2.52048
lfemur -12.0685 -2.37651 -16.9555
ltibia 33.5652
lfoot -15.048 16.0632
ltoes -6.3185
13
root 0.163141 17.6973 -32.2052 1.52958 3.64261 -2.14816
lowerback 1.90388 3.30073 -6.24578
upperback -3.66723 4.32023 3.52427
thorax -5.65967 2.50254 6.90488
lowerneck -17.0095 -3.55195 6.57208
upperneck 20.8246 -4.76918 -8.41572
head 8.9308 -2.66105 -4.57911
rclavicle 7.40473e-015 -3.18055e-015
rhumerus -35.2038 -14.9897 -68.9376
rradius 24.3505
rwrist -3.89097
rhand -17.4191 -5.35066
rfingers 7.12502
rthumb 8.8309 -35.1459
lclavicle 7.40473e-015 -3.18055e-015
lhumerus -31.4582 0.17888 87.3474
lradius 23.248
lwrist 6.63746
lhand -14.3077 1.72776
lfingers 7.12502
lthumb 11.8324 31.3735
rfemur -9.72133 -3.46245 20.3561
rtibia 33.8698
rfoot -18.3956 -20.1465
rtoes -2.52294
lfemur -11.9715 -2.32117 -16.9277
ltibia 33.5777
lfoot -15.0578 16.012
ltoes -6.34192
14
root 0.159471 17.6959 -32.2054 1.44652 3.63517 -2.16672
lowerback 1.92492 3.16935 -6.10306
upperback -3.65751 4.14766 3.51043
thorax -5.61791 2.40797 6.82323
lowerneck -16.9178 -3.31372 6.77807
upperneck 20.8361 -4.46253 -8.52426
head 8.93598 -2.51145 -4.61513
rclavicle -1.20762e-014 -1.19271e-015
rhumerus -35.0071 -14.7493 -69.2117
rradius 24.3111
rwrist -3.85906
rhand -17.4317 -5.34487
rfingers 7.12502
rthumb 8.81873 -35.1406
lclavicle -1.20762e-014 -1.19271e-015
lhumerus -31.61 0.329097 87.141
lradius 23.4246
lwrist 6.71073
lhand -14.2732 1.70585
lfingers 7.12502
lthumb 11.8656 31.3497
rfemur -9.62663 -3.4339 20.387
rtibia 33.8649
rfoot -18.3995 -20.167
rtoes -2.5279
lfemur -11.8887 -2.27134 -16.8923
ltibia 33.5948
lfoot -15.0694 15.9668
ltoes -6.36598
